<?xml version="1.0" encoding="UTF-8"?><svg id="Calque_2" xmlns="http://www.w3.org/2000/svg" viewBox="0 0 681.83 680.85"><g id="Calque_1-2"><path d="M319.68,201.66l-66.05,66.05c-24.34,24.33-48.81,48.67-73,73.28-5.7,5.84-10.01,13.63-11.68,21.28-8.76,40.19-17.24,80.37-25.73,120.56l-4.73,22.25c-2.22,10.85,.7,21.7,8.07,29.06,5.7,5.7,13.63,8.9,21.97,8.9,2.36,0,4.73-.28,7.09-.69l24.47-5.14c38.94-8.21,78.01-16.55,116.95-24.61,9.04-1.95,16.69-5.98,23.22-12.52,109.3-109.44,218.6-218.73,327.89-327.89,8.07-8.07,12.52-17.66,13.63-29.48,.14-1.95,0-3.89-.42-5.7-.69-2.78-1.25-5.7-1.95-8.48-1.53-7.09-3.2-15.16-6.53-22.94-20.44-46.72-54.37-80.1-100.81-98.87-9.32-3.75-19.19-5.01-27.81-6.12l-2.36-.28c-12.52-1.53-23.92,2.64-33.79,12.65-62.58,62.85-125.57,125.85-188.42,188.7ZM537.3,33.82h.7l2.36,.28c7.23,.83,13.9,1.67,19.19,3.89,37.82,15.3,65.64,42.55,82.46,80.93,1.95,4.45,3.2,10.15,4.45,16.13,.42,2.22,.97,4.45,1.39,6.67-.56,2.5-1.53,4.17-3.48,5.98-109.44,109.16-218.73,218.6-328.03,327.89-1.81,1.81-3.48,2.64-5.98,3.2-39.07,8.21-78.01,16.41-117.08,24.61l-20.58,4.31,3.89-18.22c8.48-40.05,16.96-80.23,25.59-120.28,.28-1.25,1.39-3.2,2.64-4.59,24.2-24.47,48.39-48.81,72.73-73l66.05-66.05c62.99-62.99,125.98-125.98,188.84-189.12,2.64-2.22,3.89-2.64,4.87-2.64Z"/><path d="M54.09,151.6h242.79c9.46,0,17.1-7.65,17.1-17.1s-7.65-17.1-17.1-17.1H54.09C24.2,117.39,0,141.73,0,171.49v455.27c0,29.9,24.33,54.09,54.09,54.09H509.22c29.9,0,54.09-24.34,54.09-54.09v-232.92c0-9.46-7.65-17.11-17.1-17.11s-17.1,7.65-17.1,17.11v232.92c0,10.99-9.04,20.03-20.03,20.03H54.09c-10.99,0-20.02-9.04-20.02-20.03V171.62c0-10.99,9.04-20.02,20.02-20.02Z"/></g></svg>